<svg id="Слой_1" xmlns="http://www.w3.org/2000/svg" viewBox="0 0 482.4 429.5"><style>.st0{fill:#fff}</style><path class="st0" d="M0 318.9c0 55.5-.1 13.4.1 103.9 0 6.7 0 6.7 6.6 6.7h469.1c6.5 0 6.5 0 6.5-6.4.1-111.8.1-92.4.1-174.2 0-3.7-.1-7.3 0-11 .1-1.8-.5-2.9-2.1-4-9.4-6.1-9.8-19.3-.6-25.6 2.3-1.6 2.7-3 2.7-5.4-.1-16.8-.1-179.8-.1-196.5 0-6.4 0-6.4-6.2-6.4H5.9C5 0 4.3.1 3.4 0 1-.2 0 .8.1 3.3c.1 18.2.1 182.9 0 201.1 0 1.6.5 2.5 1.8 3.4 9.5 6.2 10.2 18.9 1.1 25.5-2.5 1.8-3 3.4-3 6 0 25.6.1 27.6 0 79.6z"/></svg>